<mxfile host="app.diagrams.net" modified="2023-07-16T08:47:25.924Z" agent="Mozilla/5.0 (Windows NT 10.0; Win64; x64) AppleWebKit/537.36 (KHTML, like Gecko) Chrome/114.0.0.0 Safari/537.36 Edg/114.0.1823.82" etag="yl_90XGHShiNhsyzpOAA" version="21.6.2" type="github">
  <diagram id="__4aAh0t-frJoVc6Cb-0" name="第 1 页">
    <mxGraphModel dx="1379" dy="764" grid="1" gridSize="10" guides="1" tooltips="1" connect="1" arrows="1" fold="1" page="1" pageScale="1" pageWidth="827" pageHeight="1169" math="0" shadow="0">
      <root>
        <mxCell id="0" />
        <mxCell id="1" parent="0" />
      </root>
    </mxGraphModel>
  </diagram>
</mxfile>
